<?xml version="1.0" standalone="no"?>
<!DOCTYPE svg PUBLIC "-//W3C//DTD SVG 20010904//EN"
 "http://www.w3.org/TR/2001/REC-SVG-20010904/DTD/svg10.dtd">
<svg version="1.0" xmlns="http://www.w3.org/2000/svg"
 width="1280.000000pt" height="1277.000000pt" viewBox="0 0 1280.000000 1277.000000"
 preserveAspectRatio="xMidYMid meet">
<metadata>
Created by potrace 1.15, written by Peter Selinger 2001-2017
</metadata>
<g transform="translate(0.000000,1277.000000) scale(0.100000,-0.100000)"
fill="#000000" stroke="none">
<path d="M12080 12759 c-195 -24 -381 -67 -491 -114 -809 -347 -2731 -2246
-5015 -4956 -137 -163 -341 -409 -454 -547 -160 -196 -207 -247 -216 -237 -8
11 -87 -82 -355 -423 -190 -240 -712 -900 -1159 -1467 -448 -566 -908 -1149
-1022 -1293 -114 -145 -208 -272 -208 -282 0 -10 -8 -21 -17 -24 -10 -3 -76
-23 -148 -45 -255 -78 -312 -90 -583 -121 -113 -13 -290 -57 -398 -100 -636
-253 -1227 -861 -1728 -1777 -116 -212 -291 -589 -278 -597 12 -7 360 -74 502
-96 548 -85 896 -114 1385 -114 546 0 920 44 1309 156 790 227 1236 690 1341
1394 17 117 45 409 45 476 0 39 4 49 23 59 121 65 634 505 1256 1078 835 770
1848 1747 1887 1821 11 20 116 129 234 242 448 428 1091 1093 1501 1553 1108
1241 1966 2413 2718 3710 74 127 185 316 247 421 180 304 256 466 310 660 38
134 40 299 6 385 -43 109 -139 186 -277 224 -73 19 -308 28 -415 14z"/>
</g>
</svg>
